<svg width="19" height="19" viewBox="0 0 19 19" fill="none" xmlns="http://www.w3.org/2000/svg">
<path d="M9.5 0C4.2525 0 0 4.2525 0 9.5C0 13.6992 2.72 17.2325 6.4885 18.4922C6.9635 18.5823 7.125 18.2842 7.125 18.0245V16.2448C4.4783 16.8153 3.9235 15.1139 3.9235 15.1139C3.4913 14.0173 2.869 13.7192 2.869 13.7192C2.0092 13.1425 2.9355 13.157 2.9355 13.157C3.8902 13.2185 4.3937 14.1215 4.3937 14.1215C5.2393 15.5677 6.6045 15.1592 7.1622 14.9091C7.2475 14.2995 7.4975 13.8909 7.7717 13.6897C5.6622 13.4885 3.4435 12.6763 3.4435 9.025C3.4435 7.9807 3.8142 7.125 4.4118 6.4552C4.3122 6.213 3.9853 5.2387 4.5067 3.9317C4.5067 3.9317 5.301 3.6767 7.124 4.9028C7.8805 4.6955 8.6892 4.5917 9.5 4.5868C10.3107 4.5917 11.1195 4.6955 11.876 4.9028C13.699 3.6767 14.4932 3.9317 14.4932 3.9317C15.0145 5.2387 14.6877 6.213 14.5882 6.4552C15.1858 7.125 15.5565 7.9807 15.5565 9.025C15.5565 12.6858 13.333 13.4837 11.2187 13.6802C11.5597 13.9262 11.8747 14.4132 11.8747 15.1543V18.0245C11.8747 18.2842 12.0362 18.5872 12.5208 18.4922C16.2846 17.2277 19 13.6992 19 9.5C19 4.2525 14.7475 0 9.5 0Z" fill="url(#paint0_linear_github)"/>
<defs>
<linearGradient id="paint0_linear_github" x1="1.52" y1="0.228704" x2="19" y2="13" gradientUnits="userSpaceOnUse">
<stop stop-color="#ECEEFA"/>
<stop offset="0.526042" stop-color="#EAECFB"/>
<stop offset="1" stop-color="#E1E6FF"/>
</linearGradient>
</defs>
</svg> 